Coordinates
version=1
nRows=14
nColumns=36
inDegrees=yes

Units are S.I. units (second, meters, Newtons, ...)
If the header above contains a line with 'inDegrees', this indicates whether rotational values are in degrees (yes) or radians (no).

endheader
time	pelvis_tilt	pelvis_list	pelvis_rotation	pelvis_tx	pelvis_ty	pelvis_tz	hip_flexion_r	hip_adduction_r	hip_rotation_r	knee_angle_r	knee_angle_r_beta	ankle_angle_r	subtalar_angle_r	mtp_angle_r	hip_flexion_l	hip_adduction_l	hip_rotation_l	knee_angle_l	knee_angle_l_beta	ankle_angle_l	subtalar_angle_l	mtp_angle_l	lumbar_extension	lumbar_bending	lumbar_rotation	arm_flex_r	arm_add_r	arm_rot_r	elbow_flex_r	pro_sup_r	arm_flex_l	arm_add_l	arm_rot_l	elbow_flex_l	pro_sup_l
      0.00000000	     -4.70665253	     -2.46708353	     -2.70170541	     -0.15734837	      0.95390415	     -0.71563507	      5.42304247	     -8.19138168	     -1.20503793	      2.82189442	      0.04925135	      4.31119654	      3.51897208	     -6.39262513	      4.42542857	    -13.58741112	    -14.57682171	      4.81364166	      0.08401390	      6.68157755	      8.46130427	     -6.39262513	     -3.09536882	     -0.29989911	     -1.85368030	     -6.22024345	     -2.42604161	     -9.03118899	    127.27349842	    108.53497850	     -7.87908217	      0.86811109	    -16.94070248	    133.58344181	    107.09210143
      0.01000000	     -4.74951913	     -2.45291722	     -2.73559192	     -0.15736932	      0.95384216	     -0.71557167	      5.49409134	     -8.20202415	     -1.10638700	      2.84279414	      0.04961612	      4.34986493	      3.57690687	     -6.75114765	      4.49819465	    -13.60593369	    -14.84603492	      4.89438729	      0.08542317	      6.84382025	      8.90936396	     -6.75114765	     -3.04750269	     -0.33248999	     -1.80196391	     -6.26540114	     -2.40983574	     -9.16101249	    127.15309102	    110.41646313	     -7.88005226	      0.82407993	    -17.00963677	    133.42142469	    108.58352080
      0.02000000	     -4.69752807	     -2.47059336	     -2.67227739	     -0.15736084	      0.95390386	     -0.71570390	      5.42664400	     -8.20369682	     -1.36670236	      2.84524589	      0.04965891	      4.41886661	      3.87187306	     -6.83782020	      4.41508403	    -13.57131242	    -14.38106185	      4.79245092	      0.08364405	      6.66392833	      8.26366192	     -6.83782020	     -3.12214409	     -0.30852800	     -1.88796017	     -6.24072656	     -2.41758759	     -9.01021741	    127.30735471	    108.30670520	     -7.90239695	      0.82810904	    -16.86802854	    133.65929368	    106.57898908
      0.03000000	     -4.74131367	     -2.47110869	     -2.70544463	     -0.15741304	      0.95385118	     -0.71566195	      5.48839001	     -8.19291359	     -1.18307570	      2.85727044	      0.04986878	      4.31389456	      3.54799248	     -7.05579144	      4.51245099	    -13.61877223	    -14.69879781	      4.90425257	      0.08559535	      6.81544815	      8.76073781	     -7.05579144	     -3.07708465	     -0.31313366	     -1.84066729	     -6.27187036	     -2.42279307	     -9.16829033	    127.18085715	    110.48764276	     -7.88728351	      0.82031525	    -17.00279809	    133.44982124	    108.45972862
      0.04000000	     -4.71891196	     -2.48969282	     -2.67904118	     -0.15748025	      0.95387870	     -0.71568311	      5.47507597	     -8.17710003	     -1.24309207	      2.88397929	      0.05033493	      4.33016966	      3.63464698	     -7.08440709	      4.49001921	    -13.62418286	    -14.53308259	      4.89061316	      0.08535730	      6.78904005	      8.58170484	     -7.08440709	     -3.11933713	     -0.30022949	     -1.87616280	     -6.25454936	     -2.40634787	     -9.10434835	    127.25287082	    109.31921987	     -7.89389062	      0.82406429	    -16.91462883	    133.57945342	    107.42180701
      0.05000000	     -4.73675652	     -2.50298807	     -2.70104963	     -0.15757088	      0.95387839	     -0.71561816	      5.52304386	     -8.15492115	     -1.16416088	      2.91927552	      0.05095097	      4.27899017	      3.57242170	     -7.20277057	      4.52531104	    -13.64931560	    -14.56286205	      4.91591191	      0.08579885	      6.74609956	      8.56245652	     -7.20277057	     -3.09577544	     -0.29390389	     -1.88294384	     -6.23892814	     -2.39416785	     -9.17022694	    127.09875168	    110.46996553	     -7.90685282	      0.82094751	    -17.06700243	    133.44295087	    108.66348966
      0.06000000	     -4.71490953	     -2.49731501	     -2.70154599	     -0.15760751	      0.95389539	     -0.71562783	      5.51200402	     -8.16503656	     -1.14032614	      2.94033610	      0.05131855	      4.27425192	      3.48809480	     -7.26376503	      4.52928178	    -13.66195348	    -14.73173971	      4.97544224	      0.08683785	      6.86271955	      8.83737613	     -7.26376503	     -3.14844365	     -0.30594844	     -1.86991927	     -6.24306228	     -2.38010712	     -9.16172694	    127.17446162	    110.27369271	     -7.88719464	      0.81116894	    -17.03608368	    133.50913001	    108.40084989
      0.07000000	     -4.69487160	     -2.48590804	     -2.72183320	     -0.15764318	      0.95392613	     -0.71560259	      5.51458507	     -8.17869701	     -1.10082084	      2.96925358	      0.05182325	      4.30991230	      3.47080484	     -7.29783228	      4.51050323	    -13.65688705	    -14.81448874	      4.98718316	      0.08704277	      6.85165488	      8.96027453	     -7.29783228	     -3.18027704	     -0.33009852	     -1.89084133	     -6.22039742	     -2.38717914	     -9.10676198	    127.20305453	    109.83406075	     -7.90848496	      0.83385418	    -17.06814086	    133.60302156	    107.97930736
      0.08000000	     -4.70134702	     -2.51316473	     -2.69747898	     -0.15772326	      0.95390634	     -0.71561781	      5.55563831	     -8.16104245	     -1.26339708	      3.03005791	      0.05288449	      4.40476343	      3.75023859	     -7.33938729	      4.57904442	    -13.70982949	    -14.86042374	      5.08914197	      0.08882228	      7.00334653	      9.12451167	     -7.33938729	     -3.18017388	     -0.29883178	     -1.90509485	     -6.24031364	     -2.37374431	     -9.16115791	    127.23272278	    110.07579402	     -7.90361582	      0.81915199	    -17.10512402	    133.57961674	    108.10267572
      0.09000000	     -4.75019913	     -2.51222519	     -2.71059235	     -0.15795276	      0.95388858	     -0.71559531	      5.65344161	     -8.15128106	     -1.13883956	      3.07536404	      0.05367523	      4.33507844	      3.54781124	     -7.35378346	      4.64178423	    -13.68239750	    -14.52886418	      5.07923760	      0.08864942	      6.77028050	      8.46758457	     -7.35378346	     -3.17404007	     -0.29782920	     -1.87891698	     -6.22788756	     -2.35759399	     -9.13448702	    127.31490877	    109.39163325	     -7.90457954	      0.80689356	    -17.04295386	    133.66194053	    107.39182657
      0.10000000	     -4.71381386	     -2.50758873	     -2.70101948	     -0.15811890	      0.95397682	     -0.71565245	      5.64950294	     -8.16484932	     -1.13684926	      3.12560475	      0.05455209	      4.30997567	      3.49338511	     -7.36504475	      4.63923254	    -13.68927542	    -14.64432081	      5.11546994	      0.08928179	      6.77286482	      8.65157400	     -7.36504475	     -3.24686217	     -0.29899051	     -1.90850451	     -6.16114079	     -2.37933240	     -9.19292734	    127.31071803	    109.75508711	     -7.87965514	      0.82981920	    -17.06264890	    133.61833830	    107.74121089
      0.11000000	     -4.72825767	     -2.51812089	     -2.72387191	     -0.15827033	      0.95396255	     -0.71551815	      5.71457169	     -8.13932243	     -1.09125511	      3.19113886	      0.05569588	      4.31059552	      3.44227998	     -7.39106545	      4.71526441	    -13.74424536	    -14.83116763	      5.23639081	      0.09139226	      6.93243531	      8.98321141	     -7.39106545	     -3.25052927	     -0.31059532	     -1.88025694	     -6.19066345	     -2.31145552	     -9.19545448	    127.28369513	    110.19910867	     -7.84056208	      0.75672229	    -17.12070493	    133.60441366	    108.12587906
      0.12000000	     -4.73884423	     -2.54074345	     -2.73781559	     -0.15845616	      0.95396331	     -0.71546499	      5.76869374	     -8.11151303	     -1.07856414	      3.25002885	      0.05672370	      4.35183253	      3.52820160	     -7.39343929	      4.74834842	    -13.77193271	    -14.73829577	      5.26259321	      0.09184958	      6.88840168	      8.83795087	     -7.39343929	     -3.26855686	     -0.29141099	     -1.87486472	     -6.16272544	     -2.29321437	     -9.18707531	    127.30775337	    109.86437108	     -7.82907854	      0.74964285	    -17.08627579	    133.64109723	    107.89619295
      0.13000000	     -4.73651051	     -2.55203743	     -2.74634552	     -0.15867342	      0.95398897	     -0.71543324	      5.81307200	     -8.10083506	     -1.05489468	      3.30634892	      0.05770667	      4.30381727	      3.50998251	     -7.40033343	      4.75693490	    -13.77401030	    -14.59211466	      5.24950647	      0.09162117	      6.75726548	      8.52655464	     -7.40033343	     -3.31416298	     -0.28011818	     -1.86323705	     -6.14533886	     -2.28661809	     -9.15391410	    127.35316787	    109.41792853	     -7.80477225	      0.73306052	    -17.03394091	    133.70877072	    107.47351796
